<svg height="512" viewBox="0 0 74 74" width="512" xmlns="http://www.w3.org/2000/svg"><g id="Icons"><path d="m46.375 45.188c10.29.307 18.9 9.346 18.9 19.71v6.102h-56.546v-6.1c0-10.364 8.711-19.4 19-19.71" fill="#eeefee"/><path d="m8.729 68.083h56.542v2.917h-56.542z" fill="#e1e6e9"/><path d="m46.639 45.209v.017a3.3 3.3 0 0 1 -.349.853 19.106 19.106 0 0 1 15.856 18.821v6.1h3.125v-6.1c0-10.277-8.461-19.237-18.632-19.691z" fill="#e1e6e9"/><path d="m27.731 45.188 2.416-2.397 6.853 5.89-5.778 4.899z" fill="#fff"/><path d="m31.222 54.08a.481.481 0 0 1 -.117-.014.5.5 0 0 1 -.345-.294l-3.491-8.392a.5.5 0 0 1 .11-.547l2.417-2.4a.5.5 0 0 1 .678-.024l6.853 5.89a.5.5 0 0 1 0 .761l-5.778 4.9a.5.5 0 0 1 -.327.12zm-2.9-8.774 3.1 7.45 4.809-4.077-6.058-5.208z" fill="#323c6b"/><path d="m46.373 45.188-2.52-2.397-6.853 5.89 5.778 4.899z" fill="#fff"/><path d="m42.778 54.08a.5.5 0 0 1 -.323-.119l-5.778-4.9a.5.5 0 0 1 0-.761l6.853-5.89a.5.5 0 0 1 .671.017l2.521 2.4a.5.5 0 0 1 .115.559l-3.595 8.392a.5.5 0 0 1 -.46.3zm-5.008-5.4 4.814 4.082 3.191-7.45-1.94-1.845z" fill="#323c6b"/><path d="m43.853 42.791-6.853 5.89-6.853-5.89z" fill="#fcd462"/><path d="m37 49.181a.5.5 0 0 1 -.326-.121l-6.853-5.89a.5.5 0 0 1 .326-.879h13.706a.5.5 0 0 1 .326.879l-6.853 5.89a.5.5 0 0 1 -.326.121zm-5.5-5.89 5.5 4.731 5.5-4.731z" fill="#323c6b"/><path d="m39.873 51.117-1.081 2.216h-3.542l-1.093-2.241 2.843-2.411z" fill="#05afd6"/><path d="m38.792 53.833h-3.542a.5.5 0 0 1 -.449-.281l-1.094-2.242a.5.5 0 0 1 .126-.6l2.844-2.41a.5.5 0 0 1 .646 0l2.877 2.435a.5.5 0 0 1 .126.6l-1.081 2.217a.5.5 0 0 1 -.453.281zm-3.229-1h2.917l.773-1.587-2.253-1.91-2.224 1.885z" fill="#323c6b"/><path d="m41.073 67.333-4.073 3.667-4.031-3.667 2.281-14h3.542z" fill="#05afd6"/><path d="m37 71.5a.5.5 0 0 1 -.336-.13l-4.031-3.67a.5.5 0 0 1 -.157-.451l2.281-14a.5.5 0 0 1 .493-.419h3.542a.5.5 0 0 1 .493.419l2.281 14a.5.5 0 0 1 -.158.452l-4.073 3.667a.5.5 0 0 1 -.335.132zm-3.494-4.354 3.5 3.18 3.534-3.181-2.173-13.312h-2.692z" fill="#323c6b"/><path d="m5.729 68.969a.5.5 0 0 1 -.5-.5v-.469a.5.5 0 0 1 1 0v.469a.5.5 0 0 1 -.5.5z" fill="#323c6b"/><path d="m5.729 66.281a.5.5 0 0 1 -.5-.5v-.881a22.9 22.9 0 0 1 .659-5.422.5.5 0 1 1 .971.237 21.932 21.932 0 0 0 -.63 5.185v.884a.5.5 0 0 1 -.5.497z" fill="#323c6b"/><path d="m21.67 27.1c-1.17.153-2.415 1.547-1.982 3.867a4.519 4.519 0 0 0 4.3 3.867" fill="#fcd462"/><path d="m23.992 35.331h-.013a5.011 5.011 0 0 1 -4.779-4.275 4.252 4.252 0 0 1 .6-3.313 2.724 2.724 0 0 1 1.805-1.143.5.5 0 1 1 .129.991 1.729 1.729 0 0 0 -1.131.738 3.276 3.276 0 0 0 -.425 2.542 4.025 4.025 0 0 0 3.822 3.46.5.5 0 0 1 -.013 1z" fill="#323c6b"/><path d="m52.37 27.1c1.17.153 2.415 1.547 1.982 3.867a4.519 4.519 0 0 1 -4.3 3.867" fill="#fcd462"/><path d="m50.048 35.331a.5.5 0 0 1 -.013-1 4.025 4.025 0 0 0 3.826-3.458 3.276 3.276 0 0 0 -.425-2.542 1.729 1.729 0 0 0 -1.131-.738.5.5 0 1 1 .129-.991 2.724 2.724 0 0 1 1.811 1.141 4.252 4.252 0 0 1 .6 3.313 5.011 5.011 0 0 1 -4.783 4.275z" fill="#323c6b"/><path d="m51.57 28.1-1.289-4.85-2.094-3.417-2.687-3.583-8.284 1.167-14.638 2.333v8.35c0 7.99 6.692 16.986 14.442 16.986s14.1-9.184 14.55-17.406z" fill="#fcd462"/><path d="m51.54 27.99c-.58 8.14-6.86 17.1-14.52 17.1a10.388 10.388 0 0 1 -1.47-.11c5.678-.835 10.389-6.48 12.25-12.65a13.161 13.161 0 0 0 .06-7.182 13.509 13.509 0 0 0 -1.529-3.574l-1.061-1.744-2.41-3.21 2.64-.37 2.69 3.58 2.09 3.42z" fill="#f7be56"/><path d="m51.57 27.684c-.006.1-.023.205-.03.307l.03.113z" fill="#f7be56"/><path d="m37.02 45.59c-8.276 0-14.941-9.566-14.941-17.486v-8.354a.5.5 0 0 1 .421-.494l14.638-2.333 8.294-1.168a.507.507 0 0 1 .47.2l2.688 3.583 2.12 3.455a.542.542 0 0 1 .057.133l1.1 4.162a.5.5 0 0 1 .2.4v.42a.5.5 0 0 1 -.043.2c-.724 8.281-7.134 17.282-15.004 17.282zm-13.942-25.413v7.923c0 7.467 6.219 16.486 13.941 16.486 7.389 0 13.409-8.635 14.024-16.521l-1.228-4.621-2.056-3.354-2.483-3.309-7.992 1.125z" fill="#323c6b"/><path d="m53.61 17.375c-.01.48-1.34 9.425-1.34 9.425a1.076 1.076 0 0 1 -2.09.21l-.9-2.82c-1.73-5.16-6.44-6.13-12.25-4.34a52.361 52.361 0 0 1 -10.08 2.22 3.4 3.4 0 0 0 -2.96 2.55l-.57 2.8a.848.848 0 0 1 -.84.68.867.867 0 0 1 -.85-.68s-.845-2.805-1.466-5.275a13.292 13.292 0 0 1 .56-8.5q.178-.411.385-.814s.02-.02.02-.03h.01c2.43-4.13 8.388-6.96 14.178-6.96 4.55 0 6.993 1.8 9.723 4.547 1.298-1.482 8.641-.919 8.47 6.987z" fill="#828a9e"/><path d="m45.14 10.39c-2.73-2.75-5.173-4.547-9.723-4.547-5.79 0-11.749 2.83-14.178 6.96h-.01c0 .01-.02.03-.02.03q-.208.4-.385.814c-.036.082-.061.167-.095.25 2.794-3.456 8.12-5.742 13.319-5.742a11.5 11.5 0 0 1 8.4 3.283 2.762 2.762 0 0 0 2.411.717c2.447-.545 7.523.943 7.38 7.532-.008.361-.763 5.519-1.136 8.047.032 0 .062.015.095.015a1.08 1.08 0 0 0 1.07-.95s1.33-8.945 1.34-9.425c.173-7.905-7.17-8.468-8.468-6.984z" fill="#62667c"/><g fill="#323c6b"><path d="m22.58 28.6a1.364 1.364 0 0 1 -1.338-1.071s-.848-2.812-1.464-5.263a13.861 13.861 0 0 1 .586-8.817q.185-.426.4-.845a.552.552 0 0 1 .04-.065.543.543 0 0 1 .049-.065c2.523-4.2 8.5-7.13 14.564-7.13 4.367 0 6.936 1.6 9.759 4.377a5.559 5.559 0 0 1 4.491-.015c1.374.534 4.559 2.349 4.443 7.681-.011.487-1.123 7.988-1.347 9.487a1.575 1.575 0 0 1 -3.058.3l-.9-2.83c-1.908-5.688-7.377-5.324-11.626-4.014a52.814 52.814 0 0 1 -10.179 2.237 2.907 2.907 0 0 0 -2.524 2.179l-.566 2.774a1.356 1.356 0 0 1 -1.33 1.08zm-.961-15.474q-.18.357-.337.719a12.847 12.847 0 0 0 -.533 8.177c.61 2.43 1.452 5.225 1.46 5.253a.374.374 0 0 0 .721.046l.57-2.8a3.916 3.916 0 0 1 3.405-2.949 51.883 51.883 0 0 0 9.979-2.2c6.606-2.037 11.18-.382 12.87 4.659l.9 2.827a.575.575 0 0 0 1.117-.122c.529-3.557 1.319-8.976 1.337-9.374.1-4.529-2.342-6.157-3.8-6.725-1.724-.669-3.367-.4-3.79.082a.5.5 0 0 1 -.36.17.445.445 0 0 1 -.37-.147c-2.832-2.853-5.164-4.4-9.368-4.4-5.678 0-11.459 2.823-13.748 6.713a.476.476 0 0 1 -.053.071z"/><path d="m55.656 20.569a.462.462 0 0 1 -.073-.005.5.5 0 0 1 -.423-.564l.116-.8a.5.5 0 1 1 .99.142l-.116.8a.5.5 0 0 1 -.494.427z"/><path d="m56.082 17.472a.506.506 0 0 1 -.066 0 .5.5 0 0 1 -.431-.562c.06-.449.1-.755.1-.843a7.183 7.183 0 0 0 -1.842-5.451.5.5 0 1 1 .707-.706 8.245 8.245 0 0 1 2.135 6.182c0 .087-.042.435-.11.95a.5.5 0 0 1 -.493.43z"/><path d="m65.271 71.5h-56.542a.5.5 0 0 1 -.5-.5v-6.1c0-10.64 8.924-19.9 19.486-20.21a.51.51 0 0 1 .515.485.5.5 0 0 1 -.485.515 19.536 19.536 0 0 0 -18.516 19.21v5.6h55.542v-5.6c0-10.116-8.432-18.913-18.411-19.21a.5.5 0 0 1 -.485-.515.488.488 0 0 1 .515-.485c10.51.31 19.381 9.566 19.381 20.21v6.1a.5.5 0 0 1 -.5.5z"/></g><path d="m35.795 64.77-.034.3a.389.389 0 1 1 -.773-.087l.034-.3a.389.389 0 1 1 .773.087z" fill="#fff"/><path d="m36.409 59.35-.428 3.782a.389.389 0 1 1 -.773-.087l.428-3.782a.389.389 0 1 1 .773.087z" fill="#fff"/></g></svg>