<?xml version="1.0" encoding="iso-8859-1"?>
<!-- Generator: Adobe Illustrator 19.0.0, SVG Export Plug-In . SVG Version: 6.00 Build 0)  -->
<svg version="1.1" id="Capa_1" xmlns="http://www.w3.org/2000/svg" xmlns:xlink="http://www.w3.org/1999/xlink" x="0px" y="0px"
	 viewBox="0 0 512 512" style="fill:#fff;" xml:space="preserve">
<g>
	<g>
		<g>
			<path d="M450.383,82.383H61.617c-11.282,0-20.426,9.144-20.426,20.426v388.766c0,11.282,9.144,20.426,20.426,20.426h388.766
				c11.282,0,20.426-9.144,20.426-20.426V102.809C470.809,91.527,461.665,82.383,450.383,82.383z M429.957,471.149H82.043V123.234
				h347.915V471.149z"/>
			<path d="M138.553,40.851h235.581c11.282,0,20.426-9.144,20.426-20.426S385.416,0,374.134,0H138.553
				c-11.282,0-20.426,9.144-20.426,20.426S127.271,40.851,138.553,40.851z"/>
			<path d="M162.383,264.851h187.922c11.282,0,20.426-9.144,20.426-20.426v-35.404c0-11.282-9.144-20.426-20.426-20.426
				s-20.426,9.144-20.426,20.426V224H182.809v-14.979c0-11.282-9.144-20.426-20.426-20.426c-11.282,0-20.426,9.144-20.426,20.426
				v35.404C141.957,255.7,151.101,264.851,162.383,264.851z"/>
		</g>
	</g>
</g>
<g>
</g>
<g>
</g>
<g>
</g>
<g>
</g>
<g>
</g>
<g>
</g>
<g>
</g>
<g>
</g>
<g>
</g>
<g>
</g>
<g>
</g>
<g>
</g>
<g>
</g>
<g>
</g>
<g>
</g>
</svg>
