<?xml version="1.0"?>
<svg xmlns="http://www.w3.org/2000/svg" xmlns:xlink="http://www.w3.org/1999/xlink" xmlns:svgjs="http://svgjs.com/svgjs" version="1.1" width="512" height="512" x="0" y="0" viewBox="0 0 32 32" style="enable-background:new 0 0 512 512" xml:space="preserve" class=""><g transform="matrix(1.4999999999999998,0,0,1.4999999999999998,-7.9999999999999964,-7.9999999999999964)"><path xmlns="http://www.w3.org/2000/svg" d="m26 32h-20c-3.314 0-6-2.686-6-6v-20c0-3.314 2.686-6 6-6h20c3.314 0 6 2.686 6 6v20c0 3.314-2.686 6-6 6z" fill="#ffffff" data-original="#fff9dd" style="" class=""/><path xmlns="http://www.w3.org/2000/svg" d="m16 12.664c-.069 0-.137-.014-.201-.042l-4.167-1.833c-.181-.08-.299-.259-.299-.458s.117-.378.299-.458l4.167-1.833c.128-.056.275-.056.403 0l4.167 1.833c.181.08.299.259.299.458s-.117.378-.299.458l-4.167 1.833c-.065.028-.133.042-.202.042z" fill="#666666" data-original="#ffe777" style="" class=""/><path xmlns="http://www.w3.org/2000/svg" d="m16.604 13.537c-.194.085-.396.127-.604.127s-.41-.042-.602-.126l-2.732-1.202v.459c0 .407.213.789.554.997.961.583 1.87.874 2.779.874s1.818-.292 2.779-.874c.342-.208.554-.59.554-.997v-.459z" fill="#666666" data-original="#ffe777" style="" class=""/><path xmlns="http://www.w3.org/2000/svg" d="m22.833 10.666h-.867c-.106.587-.493 1.087-1.046 1.334h1.747v8h-13.334v-8h1.747c-.553-.247-.94-.747-1.047-1.333h-.866c-.64-.001-1.167.526-1.167 1.166v8.333c0 .64.527 1.167 1.167 1.167h5.5v1.333h-1.333c-.367 0-.667.3-.667.667s.3.667.667.667h5.333c.367 0 .667-.3.667-.667s-.3-.667-.667-.667h-1.333v-1.333h5.5c.64 0 1.167-.527 1.167-1.167v-8.333c-.001-.64-.528-1.167-1.168-1.167z" fill="#333333" data-original="#ffd200" style="" class=""/></g></svg>
