<svg height="512" viewBox="0 0 74 74" width="512" xmlns="http://www.w3.org/2000/svg"><g id="Icons"><path d="m46.6 46.625 10 3.9a11.7 11.7 0 0 1 7.925 11.075v9.4h-55.05v-9.4a11.7 11.7 0 0 1 7.925-11.072l9.447-3.716" fill="#eeefee"/><path d="m9.475 68.667h55.05v2.333h-55.05z" fill="#e0e0e0"/><path d="m56.6 50.528-10-3.9h-1.683v1.483l9.1 3.553a11.7 11.7 0 0 1 7.922 11.075v8.261h2.583v-9.4a11.7 11.7 0 0 0 -7.922-11.072z" fill="#e0e0e0"/><path d="m26.844 46.813 2.093-1.396 8.063 4.865-6.955 4.546z" fill="#fff"/><path d="m30.045 55.328a.494.494 0 0 1 -.15-.023.5.5 0 0 1 -.314-.291l-3.202-8.014a.5.5 0 0 1 .187-.6l2.094-1.4a.5.5 0 0 1 .536-.012l8.063 4.865a.5.5 0 0 1 .015.847l-6.955 4.546a.5.5 0 0 1 -.274.082zm-2.587-8.328 2.824 7.072 5.778-3.772-7.109-4.291z" fill="#323c6b"/><path d="m47.148 46.813-2.094-1.396-8.062 4.865 6.954 4.546z" fill="#fff"/><path d="m43.946 55.328a.5.5 0 0 1 -.273-.082l-6.955-4.546a.5.5 0 0 1 .015-.847l8.067-4.865a.5.5 0 0 1 .536.012l2.094 1.4a.5.5 0 0 1 .187.6l-3.2 8.016a.5.5 0 0 1 -.314.291.494.494 0 0 1 -.157.021zm-6.015-5.028 5.777 3.776 2.825-7.076-1.492-1z" fill="#323c6b"/><path d="m43.212 42.188 2.081 3.366-.001.005-8.292 4.691-8.292-4.691-.001-.005 2.081-3.366z" fill="#fcd462"/><g fill="#323c6b"><path d="m37 50.75a.5.5 0 0 1 -.246-.065l-8.292-4.691a.5.5 0 0 1 -.233-.292.511.511 0 0 1 .052-.411l2.081-3.367a.5.5 0 0 1 .425-.237h12.425a.5.5 0 0 1 .425.237l2.081 3.367a.5.5 0 0 1 .054.406.513.513 0 0 1 -.234.3l-8.292 4.691a.5.5 0 0 1 -.246.062zm-7.6-5.372 7.6 4.3 7.6-4.3-1.663-2.69h-11.871z"/><path d="m57.542 48.174a.5.5 0 0 1 -.182-.034l-.333-.13a.5.5 0 1 1 .363-.932l.333.13a.5.5 0 0 1 -.182.966z"/><path d="m65.756 55.125a.5.5 0 0 1 -.44-.262 14.153 14.153 0 0 0 -5.962-5.863.5.5 0 0 1 .46-.888 15.147 15.147 0 0 1 6.386 6.275.5.5 0 0 1 -.439.738z"/><path d="m26.132 42.5a.5.5 0 0 1 -.359-.152c-.619-.639-1.192-1.262-1.7-1.854a28.8 28.8 0 0 1 -2.348-3.1.5.5 0 0 1 .838-.546 27.835 27.835 0 0 0 2.267 2.989c.5.577 1.058 1.186 1.663 1.811a.5.5 0 0 1 -.359.848z"/><path d="m20.787 35.205a.5.5 0 0 1 -.447-.275c-.106-.211-.209-.426-.3-.651a.5.5 0 0 1 .92-.392c.087.2.181.4.278.592a.5.5 0 0 1 -.446.725z"/></g><path d="m22 24.663a3.535 3.535 0 0 0 -2.926 4.419c.541 3.166 2.661 3.329 3.571 3.269" fill="#fcd462"/><path d="m22.4 32.859c-1.142 0-3.263-.454-3.816-3.693a4.315 4.315 0 0 1 .636-3.394 4.386 4.386 0 0 1 2.716-1.6.5.5 0 0 1 .137.991 3.408 3.408 0 0 0 -2.052 1.213 3.369 3.369 0 0 0 -.455 2.624c.426 2.5 1.882 2.931 3.046 2.854a.515.515 0 0 1 .532.466.5.5 0 0 1 -.466.532c-.085.003-.178.007-.278.007z" fill="#323c6b"/><path d="m52.023 24.663a3.535 3.535 0 0 1 2.926 4.419c-.541 3.166-2.782 3.32-3.692 3.26" fill="#fcd462"/><path d="m51.525 32.851c-.11 0-.211 0-.3-.01a.5.5 0 0 1 -.466-.532.511.511 0 0 1 .532-.466c1.215.081 2.74-.35 3.167-2.845a3.007 3.007 0 0 0 -2.5-3.839.5.5 0 0 1 .135-.991 4.386 4.386 0 0 1 2.716 1.6 4.315 4.315 0 0 1 .636 3.394c-.555 3.238-2.736 3.689-3.92 3.689z" fill="#323c6b"/><path d="m37.149 11.306a14.954 14.954 0 0 1 14.807 14.953v.921a20.206 20.206 0 0 1 -4.672 12.165c-2.26 2.728-5.823 6.21-9.508 6.21h-1.548c-3.685 0-7.193-3.528-9.508-6.21-2.9-3.357-4.852-6.837-4.672-12.165v-.921a14.954 14.954 0 0 1 15.1-14.953z" fill="#fcd462"/><path d="m37.149 11.306a14.9 14.9 0 0 0 -4.835.763 15.047 15.047 0 0 1 1.789-.1c8.2.081 15.209 6.752 15.209 14.953v.921a20.206 20.206 0 0 1 -4.672 12.166 21.432 21.432 0 0 1 -7.02 5.545h.155c3.685 0 7.248-3.482 9.508-6.21a20.206 20.206 0 0 0 4.673-12.164v-.921a14.954 14.954 0 0 0 -14.807-14.953z" fill="#f7be56"/><path d="m56.5 71c-1.417-13.75 3.375-18.625 3.375-18.625-1.016-1.022-3.9-2.162-7.469-3.485 0 0-1.524 9.527-15.406 9.527s-15.406-9.527-15.406-9.527c-3.568 1.323-6.452 2.463-7.469 3.485 0 0 4.792 4.875 3.375 18.625z" fill="#bbbbcd"/><path d="m17.688 68.625c-.043.762-.1 1.55-.188 2.375h39c-.085-.825-.145-1.613-.188-2.375z" fill="#9297ab"/><path d="m36.018 51.1c-1.421.624-4.009 1.6-4.887.86-.8-.67-.8-3.493 0-4.163.878-.733 3.448.235 4.878.869a1.518 1.518 0 0 0 -.588 1.213 1.544 1.544 0 0 0 .597 1.221z" fill="#fe7058"/><path d="m32.1 52.717a1.945 1.945 0 0 1 -1.289-.379 4.306 4.306 0 0 1 0-4.927c.829-.695 2.647-.426 5.4.794a.5.5 0 0 1 .1.853 1.022 1.022 0 0 0 -.395.817 1.036 1.036 0 0 0 .4.826.5.5 0 0 1 -.1.853 11.232 11.232 0 0 1 -4.116 1.163zm-.019-4.688a1 1 0 0 0 -.627.149 3.661 3.661 0 0 0 0 3.4c.326.273 1.495.241 3.742-.672a2.066 2.066 0 0 1 -.006-2.046 9.085 9.085 0 0 0 -3.111-.831z" fill="#323c6b"/><path d="m42.868 51.956c-.878.742-3.466-.235-4.9-.86a1.544 1.544 0 0 0 .6-1.222 1.518 1.518 0 0 0 -.588-1.213c1.43-.633 4.009-1.6 4.887-.869.798.672.798 3.495.001 4.164z" fill="#fe7058"/><path d="m41.936 52.729a11.145 11.145 0 0 1 -4.163-1.174.5.5 0 0 1 -.106-.854 1.036 1.036 0 0 0 .4-.826 1.023 1.023 0 0 0 -.394-.817.5.5 0 0 1 .1-.853c2.758-1.222 4.578-1.49 5.41-.8a4.3 4.3 0 0 1 0 4.928 1.714 1.714 0 0 1 -1.247.396zm-3.136-1.829c2.256.911 3.426.945 3.749.674a3.653 3.653 0 0 0 0-3.4c-.352-.3-1.635-.18-3.745.68a2.066 2.066 0 0 1 0 2.044z" fill="#323c6b"/><path d="m38.57 49.875a1.544 1.544 0 0 1 -.6 1.222 1.53 1.53 0 0 1 -1.955 0 1.544 1.544 0 0 1 -.6-1.222 1.575 1.575 0 0 1 3.149 0z" fill="#ea6453"/><path d="m37 51.95a2.065 2.065 0 0 1 -1.3-3.683 2.12 2.12 0 0 1 2.6.011 2.009 2.009 0 0 1 .768 1.6 2.031 2.031 0 0 1 -.791 1.617 1.987 1.987 0 0 1 -1.277.455zm0-3.14a1.065 1.065 0 1 0 .657 1.9 1.048 1.048 0 0 0 .417-.838 1.023 1.023 0 0 0 -.394-.817 1.041 1.041 0 0 0 -.68-.245z" fill="#323c6b"/><path d="m64.525 71.5h-55.05a.5.5 0 0 1 -.5-.5v-9.4a12.2 12.2 0 0 1 8.261-11.548l9.425-3.708a.5.5 0 0 1 .366.931l-9.447 3.719a11.21 11.21 0 0 0 -7.605 10.606v8.9h54.05v-8.9a11.2 11.2 0 0 0 -7.584-10.6l-9.477-3.724a.5.5 0 1 1 .366-.931l9.455 3.716a12.193 12.193 0 0 1 8.24 11.539v9.4a.5.5 0 0 1 -.5.5z" fill="#323c6b"/><path d="m58.771 54.736a2.6 2.6 0 0 1 .089-.259 5.744 5.744 0 0 1 .556-.863 5.749 5.749 0 0 1 .608-.914c.056-.06.124-.108.185-.163a11.669 11.669 0 0 0 -3.609-2.009l-3.957-1.544c-.073.219-.155.436-.248.651a9.66 9.66 0 0 0 -.423 1.228l2.044.8a11.672 11.672 0 0 1 4.755 3.073z" fill="#9297ab"/><path d="m56.5 71.5h-39a.5.5 0 0 1 -.5-.551c1.37-13.3-3.189-18.177-3.235-18.225a.5.5 0 0 1 0-.7c1.114-1.121 4.124-2.294 7.649-3.6a.5.5 0 0 1 .667.389c.061.372 1.651 9.106 14.913 9.106 13.3 0 14.9-9.014 14.913-9.105a.5.5 0 0 1 .667-.39c3.526 1.307 6.535 2.48 7.649 3.6a.5.5 0 0 1 0 .7c-.046.048-4.605 4.927-3.235 18.225a.5.5 0 0 1 -.5.551zm-38.449-1h37.9c-1.06-11.426 2.134-16.648 3.225-18.067a32.045 32.045 0 0 0 -6.418-2.879c-.624 2.132-3.635 9.363-15.756 9.363s-15.132-7.23-15.756-9.363a32.045 32.045 0 0 0 -6.418 2.879c1.089 1.419 4.283 6.641 3.223 18.067z" fill="#323c6b"/><path d="m37.775 46.054h-1.547c-3.924 0-7.521-3.643-9.886-6.383-2.607-3.021-4.992-6.626-4.793-12.508v-.9a15.455 15.455 0 0 1 15.605-15.457 15.5 15.5 0 0 1 15.3 15.453v.921a20.678 20.678 0 0 1 -4.787 12.483c-2.414 2.916-6.09 6.391-9.892 6.391zm-.775-34.249a14.455 14.455 0 0 0 -14.45 14.454v.921c-.187 5.555 2.077 8.971 4.551 11.838 1.289 1.493 5.21 6.036 9.129 6.036h1.547c3.413 0 6.845-3.278 9.123-6.028a19.634 19.634 0 0 0 4.556-11.846v-.921a14.5 14.5 0 0 0 -14.311-14.453z" fill="#323c6b"/><path d="m53.75 19.477-.119 2.237-1.1 4.3a.929.929 0 0 1 -.878.588.911.911 0 0 1 -.89-.669 15.6 15.6 0 0 0 -.25-3.028 4.973 4.973 0 0 0 -2.528-3.447c-5.014-2.714-6.607-5.2-6.607-5.2-3.073 4.8-9.231 5.021-17.122 6.947l-.237.83-.819 3.9a.911.911 0 0 1 -.89.669.941.941 0 0 1 -.878-.588 17.943 17.943 0 0 1 -1.1-3.909c-.036-.15-.083-2.629-.083-2.629 0-9.7 7.5-17.56 16.754-17.56s16.747 7.862 16.747 17.559z" fill="#707583"/><path d="m37 1.917a16.466 16.466 0 0 0 -13.359 6.989 16.316 16.316 0 0 1 11.78-5.08c9.255 0 16.754 7.863 16.754 17.56l-.119 2.237-.747 2.911a.934.934 0 0 0 1.219-.52l1.1-4.3.119-2.237c.003-9.697-7.496-17.56-16.747-17.56z" fill="#62667c"/><path d="m51.65 27.1a1.4 1.4 0 0 1 -1.373-1.037.5.5 0 0 1 -.018-.138 15.182 15.182 0 0 0 -.241-2.925 4.5 4.5 0 0 0 -2.275-3.1 21.955 21.955 0 0 1 -6.343-4.794c-2.617 3.513-6.984 4.428-12.439 5.57-1.381.29-2.806.588-4.3.948l-.157.55-.811 3.863a1.419 1.419 0 0 1 -1.386 1.063 1.445 1.445 0 0 1 -1.34-.9 18.457 18.457 0 0 1 -1.135-4.02c-.007-.024-.041-.166-.089-2.7 0-9.968 7.74-18.07 17.254-18.07s17.254 8.1 17.254 18.06v.03l-.119 2.237-1.119 4.4a1.448 1.448 0 0 1 -1.363.963zm-.389-1.247a.461.461 0 0 0 .8-.017l1.087-4.249.1-2.124c-.006-9.4-7.3-17.048-16.254-17.048s-16.252 7.655-16.252 17.062c.021 1.121.056 2.386.076 2.546a17.5 17.5 0 0 0 1.074 3.8c.142.343.741.312.819-.011l.815-3.882.246-.865a.5.5 0 0 1 .362-.349c1.618-.395 3.143-.714 4.618-1.023 5.513-1.155 9.868-2.067 12.2-5.708a.5.5 0 0 1 .42-.23.5.5 0 0 1 .419.229c.016.024 1.612 2.425 6.425 5.03a5.5 5.5 0 0 1 2.784 3.8 16.177 16.177 0 0 1 .261 3.041z" fill="#323c6b"/><path d="m34.472 68.073h-.333a.531.531 0 0 1 0-1.062h.333a.531.531 0 1 1 0 1.062z" fill="#fff"/><path d="m43.466 68.073h-6.832a.531.531 0 0 1 0-1.062h6.832a.531.531 0 1 1 0 1.062z" fill="#fff"/></g></svg>